<mxfile host="app.diagrams.net" modified="2023-11-01T09:05:41.902Z" agent="Mozilla/5.0 (Windows NT 10.0; Win64; x64) AppleWebKit/537.36 (KHTML, like Gecko) Chrome/118.0.0.0 Safari/537.36 Edg/118.0.2088.76" version="22.0.8" etag="ePhWyKHlS0VWymhHScCu" type="github">
  <diagram name="Page-1" id="4yAOLd8gsJ8Rgh_3XaUL">
    <mxGraphModel>
      <root>
        <mxCell id="0" />
        <mxCell id="1" parent="0" />
      </root>
    </mxGraphModel>
  </diagram>
</mxfile>
